<svg xmlns="http://www.w3.org/2000/svg" viewBox="0 0 512 512" width="512" height="512">
  <rect width="512" height="512" rx="96" ry="96" fill="#5d623b"/>
  <g transform="translate(256 290)">
    <path d="M0 -150 C -70 -130 -110 -60 -100 30 C -70 10 -30 -20 0 -60 Z" fill="#a6b26f"/>
    <path d="M0 -150 C 70 -130 110 -60 100 30 C 70 10 30 -20 0 -60 Z" fill="#c6d28f"/>
    <path d="M0 -60 C -30 0 -20 80 30 130 C 20 60 30 0 0 -60 Z" fill="#7a8d3f"/>
    <rect x="-6" y="100" width="12" height="60" rx="6" fill="#4a3c2a"/>
  </g>
  <path d="M128 420 Q 256 380 384 420 L 384 460 Q 256 430 128 460 Z" fill="#3a2f20"/>
</svg>
